<svg width="288mm" height="288mm" xmlns="http://www.w3.org/2000/svg">
    <desc>Generated with Context Free v2.1 from ./logo.cfg and manually edited</desc>
    <circle cx="50%" cy="50%" r="50%" fill="white" />
    <g transform="matrix(3.779528 0 0 -3.779528 0 1088.5)">
        <circle r="0.5" fill="#002aff" transform="matrix(31.854281 0 0 31.854281 102.89276 30.298379)" />
        <circle r="0.5" fill="#002fff" fill-opacity="0.96470588" transform="matrix(29.334569 10.67691 -10.67691 29.334569 147.48875 30.298379)" />
        <circle r="0.5" fill="#0033ff" fill-opacity="0.92941176" transform="matrix(23.435483 19.664706 -19.664706 23.435483 188.55715 45.246052)" />
        <circle r="0.5" fill="#0037ff" fill-opacity="0.89803922" transform="matrix(14.990497 25.964303 -25.964303 14.990497 221.36682 72.77664)" />
        <circle r="0.5" fill="#003cff" fill-opacity="0.86666667" transform="matrix(5.1020219 28.935004 -28.935004 5.1020219 242.35353 109.12666)" />
        <circle r="0.5" fill="#0040ff" fill-opacity="0.83529412" transform="matrix(-4.9999816 28.356305 -28.356305 -4.9999816 249.49636 149.63567)" />
        <circle r="0.5" fill="#0044ff" fill-opacity="0.80784314" transform="matrix(-14.108936 24.437394 -24.437394 -14.108936 242.49638 189.3345)" />
        <circle r="0.5" fill="#0048ff" fill-opacity="0.78039216" transform="matrix(-21.183821 17.775337 -17.775337 -21.183821 222.74387 223.54684)" />
        <circle r="0.5" fill="#004cff" fill-opacity="0.75294118" transform="matrix(-25.466088 9.2688982 -9.2688982 -25.466088 193.08652 248.43232)" />
        <circle r="0.5" fill="#0051ff" fill-opacity="0.7254902" transform="matrix(-26.558435 2.1219213e-014 -2.1219213e-014 -26.558435 157.434 261.40878)" />
        <circle r="0.5" fill="#0055ff" fill-opacity="0.70196078" transform="matrix(-24.45763 -8.9018496 8.9018496 -24.45763 120.25219 261.40878)" />
        <circle r="0.5" fill="#0059ff" fill-opacity="0.6745098" transform="matrix(-19.539282 -16.395404 16.395404 -19.539282 86.011505 248.94619)" />
        <circle r="0.5" fill="#005eff" fill-opacity="0.65098039" transform="matrix(-12.498293 -21.647679 21.647679 -12.498293 58.656509 225.99263)" />
        <circle r="0.5" fill="#0062ff" fill-opacity="0.62745098" transform="matrix(-4.2537994 -24.124497 24.124497 -4.2537994 41.158901 195.68588)" />
        <circle r="0.5" fill="#0066ff" fill-opacity="0.60784314" transform="matrix(4.1687236 -23.642006 23.642006 4.1687236 35.203577 161.91158)" />
        <circle r="0.5" fill="#006aff" fill-opacity="0.58431373" transform="matrix(11.763293 -20.374622 20.374622 11.763293 41.039794 128.81277)" />
        <circle r="0.5" fill="#006eff" fill-opacity="0.56470588" transform="matrix(17.661964 -14.820147 14.820147 17.661964 57.508407 100.28829)" />
        <circle r="0.5" fill="#0073ff" fill-opacity="0.54509804" transform="matrix(21.232294 -7.7279228 7.7279228 21.232294 82.235154 79.540092)" />
        <circle r="0.5" fill="#0077ff" fill-opacity="0.5254902" transform="matrix(22.143037 -3.624949e-014 3.624949e-014 22.143037 111.96036 68.721001)" />
        <circle r="0.5" fill="#007bff" fill-opacity="0.50980392" transform="matrix(20.391495 7.4218972 -7.4218972 20.391495 142.96061 68.721001)" />
        <circle r="0.5" fill="#0080ff" fill-opacity="0.49019608" transform="matrix(16.290833 13.669632 -13.669632 16.290833 171.50871 79.111655)" />
        <circle r="0.5" fill="#0084ff" fill-opacity="0.4745098" transform="matrix(10.420424 18.048705 -18.048705 10.420424 194.31587 98.249138)" />
        <circle r="0.5" fill="#0088ff" fill-opacity="0.45490196" transform="matrix(3.5465958 20.113744 -20.113744 3.5465958 208.90446 123.51733)" />
        <circle r="0.5" fill="#008cff" fill-opacity="0.43921569" transform="matrix(-3.4756639 19.71147 -19.71147 -3.4756639 213.8697 151.67657)" />
        <circle r="0.5" fill="#0091ff" fill-opacity="0.42352941" transform="matrix(-9.8076201 16.987295 -16.987295 -9.8076201 209.00377 179.27262)" />
        <circle r="0.5" fill="#0095ff" fill-opacity="0.41176471" transform="matrix(-14.725623 12.356264 -12.356264 -14.725623 195.2731 203.05483)" />
        <circle r="0.5" fill="#0099ff" fill-opacity="0.39607843" transform="matrix(-17.702377 6.4431383 -6.4431383 -17.702377 174.65723 220.35361)" />
        <circle r="0.5" fill="#009dff" fill-opacity="0.38039216" transform="matrix(-18.461707 4.5974963e-014 -4.5974963e-014 -18.461707 149.8739 229.37401)" />
        <circle r="0.5" fill="#00a2ff" fill-opacity="0.36862745" transform="matrix(-17.001362 -6.1879898 6.1879898 -17.001362 124.02752 229.37401)" />
        <circle r="0.5" fill="#00a6ff" fill-opacity="0.35686275" transform="matrix(-13.582445 -11.397025 11.397025 -13.582445 100.22561 220.71082)" />
        <circle r="0.5" fill="#00aaff" fill-opacity="0.34509804" transform="matrix(-8.6880051 -15.048067 15.048067 -8.6880051 81.210183 204.75499)" />
        <circle r="0.5" fill="#00aeff" fill-opacity="0.33333333" transform="matrix(-2.9569663 -16.76979 16.76979 -2.9569663 69.046977 183.68769)" />
        <circle r="0.5" fill="#00b3ff" fill-opacity="0.32156863" transform="matrix(2.8978269 -16.434393 16.434393 2.8978269 64.907223 160.20998)" />
        <circle r="0.5" fill="#00b7ff" fill-opacity="0.30980392" transform="matrix(8.1770815 -14.16312 14.16312 8.1770815 68.96418 137.20183)" />
        <circle r="0.5" fill="#00bbff" fill-opacity="0.29803922" transform="matrix(12.277455 -10.302007 10.302007 12.277455 80.412093 117.37347)" />
        <circle r="0.5" fill="#00bfff" fill-opacity="0.28627451" transform="matrix(14.759317 -5.371952 5.371952 14.759317 97.600531 102.95065)" />
        <circle r="0.5" fill="#00c3ff" fill-opacity="0.27843137" transform="matrix(15.392407 -4.774323e-014 4.774323e-014 15.392407 118.26357 95.42992)" />
        <circle r="0.5" fill="#00c8ff" fill-opacity="0.26666667" transform="matrix(14.174848 5.1592229 -5.1592229 14.174848 139.81295 95.42992)" />
        <circle r="0.5" fill="#00ccff" fill-opacity="0.25882353" transform="matrix(11.324333 9.5022439 -9.5022439 11.324333 159.65773 102.65284)" />
        <circle r="0.5" fill="#00d0ff" fill-opacity="0.25098039" transform="matrix(7.2436052 12.546292 -12.546292 7.2436052 175.5118 115.95597)" />
        <circle r="0.5" fill="#00d5ff" fill-opacity="0.23921569" transform="matrix(2.4653642 13.981774 -13.981774 2.4653642 185.65284 133.52078)" />
        <circle r="0.5" fill="#00d9ff" fill-opacity="0.23137255" transform="matrix(-2.4160568 13.702139 -13.702139 -2.4160568 189.10435 153.09526)" />
        <circle r="0.5" fill="#00ddff" fill-opacity="0.22352941" transform="matrix(-6.817623 11.808469 -11.808469 -6.817623 185.72188 172.27826)" />
        <circle r="0.5" fill="#00e1ff" fill-opacity="0.21568627" transform="matrix(-10.2363 8.5892755 -8.5892755 -10.2363 176.1772 188.81012)" />
        <circle r="0.5" fill="#00e5ff" fill-opacity="0.20784314" transform="matrix(-12.305548 4.4788532 -4.4788532 -12.305548 161.84638 200.83511)" />
        <circle r="0.5" fill="#00eaff" fill-opacity="0.2" transform="matrix(-12.833385 5.21639e-014 -5.21639e-014 -12.833385 144.61862 207.1055)" />
        <circle r="0.5" fill="#00eeff" fill-opacity="0.19607843" transform="matrix(-11.818248 -4.3014905 4.3014905 -11.818248 126.65188 207.1055)" />
        <circle r="0.5" fill="#00f2ff" fill-opacity="0.18823529" transform="matrix(-9.4416376 -7.9224745 7.9224745 -9.4416376 110.10633 201.08341)" />
        <circle r="0.5" fill="#00f7ff" fill-opacity="0.18039216" transform="matrix(-6.0393392 -10.460443 10.460443 -6.0393392 96.888038 189.99195)" />
        <circle r="0.5" fill="#00fbff" fill-opacity="0.17647059" transform="matrix(-2.0554917 -11.657273 11.657273 -2.0554917 88.432962 175.34732)" />
        <circle r="0.5" fill="#00ffff" fill-opacity="0.16862745" transform="matrix(2.0143818 -11.424128 11.424128 2.0143818 85.555274 159.02714)" />
        <circle r="0.5" fill="#00fffb" fill-opacity="0.16078431" transform="matrix(5.6841781 -9.8452848 9.8452848 5.6841781 88.375409 143.03337)" />
        <circle r="0.5" fill="#00fff7" fill-opacity="0.15686275" transform="matrix(8.5344924 -7.1612896 7.1612896 8.5344924 96.333258 129.24997)" />
        <circle r="0.5" fill="#00fff2" fill-opacity="0.15294118" transform="matrix(10.259723 -3.7342338 3.7342338 10.259723 108.28155 119.22416)" />
        <circle r="0.5" fill="#00ffee" fill-opacity="0.14509804" transform="matrix(10.699806 -5.3048034e-014 5.3048034e-014 10.699806 122.64516 113.99623)" />
        <circle r="0.5" fill="#00ffea" fill-opacity="0.14117647" transform="matrix(9.8534377 3.5863581 -3.5863581 9.8534377 137.62489 113.99623)" />
        <circle r="0.5" fill="#00ffe5" fill-opacity="0.1372549" transform="matrix(7.871944 6.6053454 -6.6053454 7.871944 151.4197 119.01714)" />
        <circle r="0.5" fill="#00ffe1" fill-opacity="0.12941176" transform="matrix(5.0352858 8.7213703 -8.7213703 5.0352858 162.44042 128.26462)" />
        <circle r="0.5" fill="#00ffdd" fill-opacity="0.1254902" transform="matrix(1.7137617 9.719225 -9.719225 1.7137617 169.48982 140.47454)" />
        <circle r="0.5" fill="#00ffd9" fill-opacity="0.12156863" transform="matrix(-1.6794864 9.5248408 -9.5248408 -1.6794864 171.88909 154.08145)" />
        <circle r="0.5" fill="#00ffd5" fill-opacity="0.11764706" transform="matrix(-4.7391708 8.2084844 -8.2084844 -4.7391708 169.53781 167.41623)" />
        <circle r="0.5" fill="#00ffd0" fill-opacity="0.11372549" transform="matrix(-7.1156139 5.9707092 -5.9707092 -7.1156139 162.90297 178.90811)" />
        <circle r="0.5" fill="#00ffcc" fill-opacity="0.10980392" transform="matrix(-8.5540211 3.113409 -3.113409 -8.5540211 152.94111 187.2671)" />
        <circle r="0.5" fill="#00ffc8" fill-opacity="0.10588235" transform="matrix(-8.9209387 5.1279766e-014 -5.1279766e-014 -8.9209387 140.96548 191.62588)" />
        <circle r="0.5" fill="#00ffc3" fill-opacity="0.10196078" transform="matrix(-8.2152816 -2.9901181 2.9901181 -8.2152816 128.47616 191.62588)" />
        <circle r="0.5" fill="#00ffbf" fill-opacity="0.098039216" transform="matrix(-6.5632159 -5.5071919 5.5071919 -6.5632159 116.97477 187.43971)" />
        <circle r="0.5" fill="#00ffbb" fill-opacity="0.094117647" transform="matrix(-4.1981581 -7.2714234 7.2714234 -4.1981581 107.78627 179.72965)" />
        <circle r="0.5" fill="#00ffb7" fill-opacity="0.090196078" transform="matrix(-1.428845 -8.103382 8.103382 -1.428845 101.90885 169.54966)" />
        <circle r="0.5" fill="#00ffb3" fill-opacity="0.090196078" transform="matrix(1.4002681 -7.9413145 7.9413145 1.4002681 99.908464 158.20492)" />
        <circle r="0.5" fill="#00ffae" fill-opacity="0.08627451" transform="matrix(3.9512728 -6.8438056 6.8438056 3.9512728 101.86884 147.08707)" />
        <circle r="0.5" fill="#00ffaa" fill-opacity="0.082352941" transform="matrix(5.9326272 -4.9780653 4.9780653 5.9326272 107.40062 137.50574)" />
        <circle r="0.5" fill="#00ffa6" fill-opacity="0.078431373" transform="matrix(7.1318959 -2.5957978 2.5957978 7.1318959 115.7063 130.53645)" />
        <circle r="0.5" fill="#00ffa2" fill-opacity="0.078431373" transform="matrix(7.4378128 -4.9069431e-014 4.9069431e-014 7.4378128 125.69095 126.90233)" />
        <circle r="0.5" fill="#00ff9d" fill-opacity="0.074509804" transform="matrix(6.8494726 2.4930042 -2.4930042 6.8494726 136.10389 126.90233)" />
        <circle r="0.5" fill="#00ff99" fill-opacity="0.070588235" transform="matrix(5.4720666 4.5916091 -4.5916091 5.4720666 145.69315 130.39254)" />
        <circle r="0.5" fill="#00ff95" fill-opacity="0.070588235" transform="matrix(3.5002051 6.0625328 -6.0625328 3.5002051 153.35405 136.8208)" />
        <circle r="0.5" fill="#00ff91" fill-opacity="0.066666667" transform="matrix(1.1912963 6.7561771 -6.7561771 1.1912963 158.25433 145.30834)" />
        <circle r="0.5" fill="#00ff8c" fill-opacity="0.062745098" transform="matrix(-1.1674704 6.6210535 -6.6210535 -1.1674704 159.92215 154.76699)" />
        <circle r="0.5" fill="#00ff88" fill-opacity="0.062745098" transform="matrix(-3.2943649 5.7060075 -5.7060075 -3.2943649 158.28769 164.03647)" />
        <circle r="0.5" fill="#00ff84" fill-opacity="0.058823529" transform="matrix(-4.9463149 4.1504509 -4.1504509 -4.9463149 153.67558 172.02487)" />
        <circle r="0.5" fill="#00ff80" fill-opacity="0.058823529" transform="matrix(-5.9462022 2.1642407 -2.1642407 -5.9462022 146.75074 177.83551)" />
        <circle r="0.5" fill="#00ff7b" fill-opacity="0.054901961" transform="matrix(-6.20126 4.5974963e-014 -4.5974963e-014 -6.20126 138.42606 180.86544)" />
        <circle r="0.5" fill="#00ff77" fill-opacity="0.054901961" transform="matrix(-5.7107324 -2.0785367 2.0785367 -5.7107324 129.74429 180.86544)" />
        <circle r="0.5" fill="#00ff73" fill-opacity="0.050980392" transform="matrix(-4.5623231 -3.8282438 3.8282438 -4.5623231 121.74927 177.95549)" />
        <circle r="0.5" fill="#00ff6e" fill-opacity="0.050980392" transform="matrix(-2.9182881 -5.0546232 5.0546232 -2.9182881 115.36201 172.59595)" />
        <circle r="0.5" fill="#00ff6a" fill-opacity="0.047058824" transform="matrix(-0.99324062 -5.6329475 5.6329475 -0.99324062 111.27641 165.51948)" />
        <circle r="0.5" fill="#00ff66" fill-opacity="0.047058824" transform="matrix(0.97337579 -5.5202884 5.5202884 0.97337579 109.88587 157.63335)" />
        <circle r="0.5" fill="#00ff62" fill-opacity="0.043137255" transform="matrix(2.7466694 -4.7573709 4.7573709 2.7466694 111.2486 149.90495)" />
        <circle r="0.5" fill="#00ff5e" fill-opacity="0.043137255" transform="matrix(4.1239788 -3.460429 3.460429 4.1239788 115.09394 143.24463)" />
        <circle r="0.5" fill="#00ff59" fill-opacity="0.043137255" transform="matrix(4.9576329 -1.8044308 1.8044308 4.9576329 120.86751 138.40003)" />
        <circle r="0.5" fill="#00ff55" fill-opacity="0.039215686" transform="matrix(5.1702865 -4.2438427e-014 4.2438427e-014 5.1702865 127.80819 135.87383)" />
        <circle r="0.5" fill="#00ff51" fill-opacity="0.039215686" transform="matrix(4.7613106 1.7329753 -1.7329753 4.7613106 135.04659 135.87383)" />
        <circle r="0.5" fill="#00ff4c" fill-opacity="0.039215686" transform="matrix(3.8038267 3.1917896 -3.1917896 3.8038267 141.71243 138.29999)" />
        <circle r="0.5" fill="#00ff48" fill-opacity="0.035294118" transform="matrix(2.4331161 4.2142806 -4.2142806 2.4331161 147.03779 142.7685)" />
        <circle r="0.5" fill="#00ff44" fill-opacity="0.035294118" transform="matrix(0.82811211 4.696457 -4.696457 0.82811211 150.44415 148.66849)" />
        <circle r="0.5" fill="#00ff40" fill-opacity="0.035294118" transform="matrix(-0.81154989 4.6025283 -4.6025283 -0.81154989 151.60351 155.24353)" />
        <circle r="0.5" fill="#00ff3c" fill-opacity="0.031372549" transform="matrix(-2.2900295 3.9664474 -3.9664474 -2.2900295 150.46733 161.68706)" />
        <circle r="0.5" fill="#00ff37" fill-opacity="0.031372549" transform="matrix(-3.438358 2.8851251 -2.8851251 -3.438358 147.26129 167.24009)" />
        <circle r="0.5" fill="#00ff33" fill-opacity="0.031372549" transform="matrix(-4.1334152 1.5044401 -1.5044401 -4.1334152 142.44759 171.27926)" />
        <circle r="0.5" fill="#00ff2f" fill-opacity="0.02745098" transform="matrix(-4.3107147 3.9122925e-014 -3.9122925e-014 -4.3107147 136.66081 173.38549)" />
        <circle r="0.5" fill="#00ff2a" fill-opacity="0.02745098" transform="matrix(-3.9697319 -1.4448643 1.4448643 -3.9697319 130.62581 173.38549)" />
        <circle r="0.5" fill="#00ff26" fill-opacity="0.02745098" transform="matrix(-3.1714321 -2.6611474 2.6611474 -3.1714321 125.06819 171.36268)" />
        <circle r="0.5" fill="#00ff22" fill-opacity="0.02745098" transform="matrix(-2.0286052 -3.5136471 3.5136471 -2.0286052 120.62818 167.63706)" />
        <circle r="0.5" fill="#00ff1e" fill-opacity="0.023529412" transform="matrix(-0.69043661 -3.9156608 3.9156608 -0.69043661 117.78813 162.71796)" />
        <circle r="0.5" fill="#00ff1a" fill-opacity="0.023529412" transform="matrix(0.67662793 -3.8373476 3.8373476 0.67662793 116.82152 157.23604)" />
        <circle r="0.5" fill="#00ff15" fill-opacity="0.023529412" transform="matrix(1.909307 -3.3070166 3.3070166 1.909307 117.7688 151.86375)" />
        <circle r="0.5" fill="#00ff11" fill-opacity="0.023529412" transform="matrix(2.8667235 -2.4054666 2.4054666 2.8667235 120.44183 147.23393)" />
        <circle r="0.5" fill="#00ff0d" fill-opacity="0.023529412" transform="matrix(3.4462256 -1.2543235 1.2543235 3.4462256 124.45524 143.86627)" />
        <circle r="0.5" fill="#00ff08" fill-opacity="0.019607843" transform="matrix(3.5940489 -3.6028456e-014 3.6028456e-014 3.5940489 129.27996 142.11022)" />
        <circle r="0.5" fill="#00ff04" fill-opacity="0.019607843" transform="matrix(3.3097552 1.2046524 -1.2046524 3.3097552 134.31163 142.11022)" />
        <circle r="0.5" fill="#00ff00" fill-opacity="0.019607843" transform="matrix(2.6441743 2.2187257 -2.2187257 2.6441743 138.94529 143.79674)" />
        <circle r="0.5" fill="#04ff00" fill-opacity="0.019607843" transform="matrix(1.691345 2.9294954 -2.9294954 1.691345 142.64713 146.90295)" />
        <circle r="0.5" fill="#09ff00" fill-opacity="0.019607843" transform="matrix(0.57565002 3.2646733 -3.2646733 0.57565002 145.01501 151.00424)" />
        <circle r="0.5" fill="#0dff00" fill-opacity="0.019607843" transform="matrix(-0.564137 3.19938 -3.19938 -0.564137 145.82092 155.57479)" />
        <circle r="0.5" fill="#11ff00" fill-opacity="0.015686275" transform="matrix(-1.5918804 2.7572176 -2.7572176 -1.5918804 145.03113 160.05392)" />
        <circle r="0.5" fill="#15ff00" fill-opacity="0.015686275" transform="matrix(-2.3901242 2.0055524 -2.0055524 -2.3901242 142.8025 163.91403)" />
        <circle r="0.5" fill="#1aff00" fill-opacity="0.015686275" transform="matrix(-2.8732829 1.0457894 -1.0457894 -2.8732829 139.45633 166.7218)" />
        <circle r="0.5" fill="#1eff00" fill-opacity="0.015686275" transform="matrix(-2.9965301 3.2712954e-014 -3.2712954e-014 -2.9965301 135.43373 168.1859)" />
        <circle r="0.5" fill="#22ff00" fill-opacity="0.015686275" transform="matrix(-2.759501 -1.0043762 1.0043762 -2.759501 131.23859 168.1859)" />
        <circle r="0.5" fill="#26ff00" fill-opacity="0.015686275" transform="matrix(-2.2045745 -1.8498576 1.8498576 -2.2045745 127.37529 166.77978)" />
        <circle r="0.5" fill="#2bff00" fill-opacity="0.015686275" transform="matrix(-1.4101551 -2.4424604 2.4424604 -1.4101551 124.28888 164.18997)" />
        <circle r="0.5" fill="#2fff00" fill-opacity="0.011764706" transform="matrix(-0.4799469 -2.7219141 2.7219141 -0.4799469 122.31466 160.77053)" />
        <circle r="0.5" fill="#33ff00" fill-opacity="0.011764706" transform="matrix(0.47034797 -2.6674759 2.6674759 0.47034797 121.64274 156.95985)" />
        <circle r="0.5" fill="#37ff00" fill-opacity="0.011764706" transform="matrix(1.3272267 -2.2988241 2.2988241 1.3272267 122.30123 153.22538)" />
        <circle r="0.5" fill="#3cff00" fill-opacity="0.011764706" transform="matrix(1.9927608 -1.6721248 1.6721248 1.9927608 124.15934 150.00703)" />
        <circle r="0.5" fill="#40ff00" fill-opacity="0.011764706" transform="matrix(2.3955933 -0.87192465 0.87192465 2.3955933 126.94921 147.66606)" />
        <circle r="0.5" fill="#44ff00" fill-opacity="0.011764706" transform="matrix(2.4983504 -2.9507969e-014 2.9507969e-014 2.4983504 130.30304 146.44536)" />
        <circle r="0.5" fill="#48ff00" fill-opacity="0.011764706" transform="matrix(2.3007278 0.83739639 -0.83739639 2.3007278 133.80073 146.44536)" />
        <circle r="0.5" fill="#4dff00" fill-opacity="0.011764706" transform="matrix(1.8380591 1.5423146 -1.5423146 1.8380591 137.02175 147.61772)" />
        <circle r="0.5" fill="#51ff00" fill-opacity="0.011764706" transform="matrix(1.1757136 2.0363959 -2.0363959 1.1757136 139.59503 149.77696)" />
        <circle r="0.5" fill="#55ff00" fill-opacity="0.0078431373" transform="matrix(0.40015467 2.2693899 -2.2693899 0.40015467 141.24103 152.62791)" />
        <circle r="0.5" fill="#59ff00" fill-opacity="0.0078431373" transform="matrix(-0.39215156 2.2240021 -2.2240021 -0.39215156 141.80125 155.80506)" />
        <circle r="0.5" fill="#5eff00" fill-opacity="0.0078431373" transform="matrix(-1.1065723 1.9166395 -1.9166395 -1.1065723 141.25223 158.91866)" />
        <circle r="0.5" fill="#62ff00" fill-opacity="0.0078431373" transform="matrix(-1.6614598 1.3941303 -1.3941303 -1.6614598 139.70303 161.60196)" />
        <circle r="0.5" fill="#66ff00" fill-opacity="0.0078431373" transform="matrix(-1.9973205 0.72696522 -0.72696522 -1.9973205 137.37699 163.55374)" />
        <circle r="0.5" fill="#6aff00" fill-opacity="0.0078431373" transform="matrix(-2.0829941 2.64135e-014 -2.64135e-014 -2.0829941 134.58074 164.57148)" />
        <circle r="0.5" fill="#6fff00" fill-opacity="0.0078431373" transform="matrix(-1.9182267 -0.6981774 0.6981774 -1.9182267 131.66455 164.57148)" />
        <circle r="0.5" fill="#73ff00" fill-opacity="0.0078431373" transform="matrix(-1.5324777 -1.2859014 1.2859014 -1.5324777 128.97903 163.59404)" />
        <circle r="0.5" fill="#77ff00" fill-opacity="0.0078431373" transform="matrix(-0.98024866 -1.6978404 1.6978404 -0.98024866 126.83356 161.79378)" />
        <circle r="0.5" fill="#7bff00" fill-opacity="0.0078431373" transform="matrix(-0.33362803 -1.8920987 1.8920987 -0.33362803 125.46121 159.41681)" />
        <circle r="0.5" fill="#80ff00" fill-opacity="0.0078431373" transform="matrix(0.32695548 -1.8542567 1.8542567 0.32695548 124.99414 156.76786)" />
        <circle r="0.5" fill="#84ff00" fill-opacity="0.0078431373" transform="matrix(0.92260216 -1.5979939 1.5979939 0.92260216 125.45187 154.1719)" />
        <circle r="0.5" fill="#88ff00" fill-opacity="0.0078431373" transform="matrix(1.3852384 -1.162353 1.162353 1.3852384 126.74352 151.93471)" />
        <circle r="0.5" fill="#8cff00" fill-opacity="0.0078431373" transform="matrix(1.6652615 -0.60610565 0.60610565 1.6652615 128.68285 150.30742)" />
        <circle r="0.5" fill="#91ff00" fill-opacity="0.0078431373" transform="matrix(1.7366916 -2.3540065e-014 2.3540065e-014 1.7366916 131.01422 149.45887)" />
        <circle r="0.5" fill="#95ff00" fill-opacity="0.0039215686" transform="matrix(1.5993171 0.58210382 -0.58210382 1.5993171 133.44558 149.45887)" />
        <circle r="0.5" fill="#99ff00" fill-opacity="0.0039215686" transform="matrix(1.2776997 1.0721174 -1.0721174 1.2776997 135.68463 150.27382)" />
        <circle r="0.5" fill="#9dff00" fill-opacity="0.0039215686" transform="matrix(0.81728012 1.4155707 -1.4155707 0.81728012 137.47341 151.77478)" />
        <circle r="0.5" fill="#a2ff00" fill-opacity="0.0039215686" transform="matrix(0.27816165 1.5775331 -1.5775331 0.27816165 138.6176 153.75658)" />
        <circle r="0.5" fill="#a6ff00" fill-opacity="0.0039215686" transform="matrix(-0.27259842 1.5459824 -1.5459824 -0.27259842 139.00703 155.96512)" />
        <circle r="0.5" fill="#aaff00" fill-opacity="0.0039215686" transform="matrix(-0.76921748 1.3323238 -1.3323238 -0.76921748 138.62539 158.1295)" />
        <circle r="0.5" fill="#aeff00" fill-opacity="0.0039215686" transform="matrix(-1.1549394 0.9691092 -0.9691092 -1.1549394 137.54849 159.99475)" />
        <circle r="0.5" fill="#b3ff00" fill-opacity="0.0039215686" transform="matrix(-1.3884081 0.50533921 -0.50533921 -1.3884081 135.93157 161.3515)" />
        <circle r="0.5" fill="#b7ff00" fill-opacity="0.0039215686" transform="matrix(-1.4479627 2.0942922e-014 -2.0942922e-014 -1.4479627 133.9878 162.05899)" />
        <circle r="0.5" fill="#bbff00" fill-opacity="0.0039215686" transform="matrix(-1.333427 -0.48532777 0.48532777 -1.333427 131.96065 162.05899)" />
        <circle r="0.5" fill="#bfff00" fill-opacity="0.0039215686" transform="matrix(-1.0652793 -0.89387551 0.89387551 -1.0652793 130.09385 161.37953)" />
        <circle r="0.5" fill="#c3ff00" fill-opacity="0.0039215686" transform="matrix(-0.6814055 -1.1802289 1.1802289 -0.6814055 128.60246 160.12809)" />
        <circle r="0.5" fill="#c8ff00" fill-opacity="0.0039215686" transform="matrix(-0.23191664 -1.3152647 1.3152647 -0.23191664 127.64849 158.47577)" />
        <circle r="0.5" fill="#ccff00" fill-opacity="0.0039215686" transform="matrix(0.22727831 -1.2889593 1.2889593 0.22727831 127.32381 156.63441)" />
        <circle r="0.5" fill="#d0ff00" fill-opacity="0.0039215686" transform="matrix(0.64133338 -1.110822 1.110822 0.64133338 127.642 154.82987)" />
        <circle r="0.5" fill="#d4ff00" fill-opacity="0.0039215686" transform="matrix(0.96292816 -0.80799263 0.80799263 0.96292816 128.53987 153.27471)" />
        <circle r="0.5" fill="#d9ff00" fill-opacity="0.0039215686" transform="matrix(1.1575821 -0.42132544 0.42132544 1.1575821 129.88796 152.14352)" />
        <circle r="0.5" fill="#ddff00" fill-opacity="0.0039215686" transform="matrix(1.2072357 -1.8566812e-014 1.8566812e-014 1.2072357 131.50858 151.55367)" />
        <circle r="0.5" fill="#e1ff00" fill-opacity="0.0039215686" transform="matrix(1.1117419 0.40464094 -0.40464094 1.1117419 133.19871 151.55367)" />
        <circle r="0.5" fill="#e5ff00" fill-opacity="0.0039215686" transform="matrix(0.88817424 0.74526667 -0.74526667 0.88817424 134.75515 152.12016)" />
        <circle r="0.5" fill="#eaff00" fill-opacity="0.0039215686" transform="matrix(0.56812028 0.98401317 -0.98401317 0.56812028 135.99859 153.16354)" />
        <circle r="0.5" fill="#eeff00" fill-opacity="0.0039215686" transform="matrix(0.19335998 1.096599 -1.096599 0.19335998 136.79396 154.54116)" />
        <circle r="0.5" fill="#f2ff00" fill-opacity="0.0039215686" transform="matrix(-0.18949278 1.0746669 -1.0746669 -0.18949278 137.06466 156.07639)" />
        <circle r="0.5" fill="#f6ff00" fill-opacity="0.0039215686" transform="matrix(-0.53471028 0.92614536 -0.92614536 -0.53471028 136.79938 157.58093)" />
        <circle r="0.5" fill="#fbff00" fill-opacity="0.0039215686" transform="matrix(-0.80283918 0.67366204 -0.67366204 -0.80283918 136.05078 158.87753)" />
        <circle r="0.5" fill="#ffff00" fill-opacity="0.0039215686" transform="matrix(-0.9651315 0.35127913 -0.35127913 -0.9651315 134.92681 159.82066)" />
        <circle r="0.5" fill="#fffb00" fill-opacity="0.0039215686" transform="matrix(-1.0065301 1.6024927e-014 -1.6024927e-014 -1.0065301 133.57562 160.31245)" />
        <circle r="0.5" fill="#fff700" fill-opacity="0.0039215686" transform="matrix(-0.9269123 -0.33736849 0.33736849 -0.9269123 132.16648 160.31245)" />
        <circle r="0.5" fill="#fff200" fill-opacity="0.0039215686" transform="matrix(-0.74051331 -0.62136443 0.62136443 -0.74051331 130.8688 159.84014)" />
        <circle r="0.5" fill="#ffee00" fill-opacity="0.0039215686" transform="matrix(-0.473669 -0.82041878 0.82041878 -0.473669 129.83209 158.97023)" />
    </g>
</svg>
